#define node_s1_width 9
#define node_s1_height 9
static unsigned char node_s1_bits[] = {
   0xf0, 0x01, 0xf0, 0x00, 0x70, 0x00, 0x30, 0x00, 0x10, 0x00, 0x00, 0x00,
   0x00, 0x00, 0x00, 0x00, 0x00, 0x00};
