#define node_closed_width 9
#define node_closed_height 9
static unsigned char node_closed_bits[] = {
   0x04, 0x00, 0x0c, 0x00, 0x1c, 0x00, 0x3c, 0x00, 0x7c, 0x00, 0x3c, 0x00,
   0x1c, 0x00, 0x0c, 0x00, 0x04, 0x00};
