#define node_s8_width 9
#define node_s8_height 9
static unsigned char node_s8_bits[] = {
   0x1f, 0x00, 0x1e, 0x00, 0x1c, 0x00, 0x18, 0x00, 0x10, 0x00, 0x00, 0x00,
   0x00, 0x00, 0x00, 0x00, 0x00, 0x00};
