#define node_t3_width 9
#define node_t3_height 9
static unsigned char node_t3_bits[] = {
   0xff, 0xff, 0xff, 0xff, 0xff, 0xff, 0xff, 0xff, 0x0f, 0xfe, 0x1f, 0xfe,
   0x3f, 0xfe, 0x7f, 0xfe, 0xff, 0xfe};
