#define node_open_width 9
#define node_open_height 9
static unsigned char node_open_bits[] = {
   0x00, 0x00, 0x00, 0x00, 0xff, 0x01, 0xfe, 0x00, 0x7c, 0x00, 0x38, 0x00,
   0x10, 0x00, 0x00, 0x00, 0x00, 0x00};
