#define node_s6_width 9
#define node_s6_height 9
static unsigned char node_s6_bits[] = {
   0x00, 0x00, 0x00, 0x00, 0x00, 0x00, 0x00, 0x00, 0x1f, 0x00, 0x0f, 0x00,
   0x07, 0x00, 0x03, 0x00, 0x01, 0x00};
