#define node_s5_width 9
#define node_s5_height 9
static unsigned char node_s5_bits[] = {
   0x00, 0x00, 0x00, 0x00, 0x00, 0x00, 0x00, 0x00, 0x10, 0x00, 0x18, 0x00,
   0x1c, 0x00, 0x1e, 0x00, 0x1f, 0x00};
