#define node_t6_width 9
#define node_t6_height 9
static unsigned char node_t6_bits[] = {
   0xff, 0xff, 0xff, 0xff, 0xff, 0xff, 0xff, 0xff, 0xe0, 0xff, 0xf0, 0xff,
   0xf8, 0xff, 0xfc, 0xff, 0xfe, 0xff};
