#define node_leaf_width 9
#define node_leaf_height 9
static unsigned char node_leaf_bits[] = {
   0x00, 0x00, 0x10, 0x00, 0x38, 0x00, 0x7c, 0x00, 0xfe, 0x00, 0x7c, 0x00,
   0x38, 0x00, 0x10, 0x00, 0x00, 0x00};
