#define node_s3_width 9
#define node_s3_height 9
static unsigned char node_s3_bits[] = {
   0x00, 0x00, 0x00, 0x00, 0x00, 0x00, 0x00, 0x00, 0xf0, 0x01, 0xe0, 0x01,
   0xc0, 0x01, 0x80, 0x01, 0x00, 0x01};
