#define node_t8_width 9
#define node_t8_height 9
static unsigned char node_t8_bits[] = {
   0xe0, 0xff, 0xe1, 0xff, 0xe3, 0xff, 0xe7, 0xff, 0xef, 0xff, 0xff, 0xff,
   0xff, 0xff, 0xff, 0xff, 0xff, 0xff};
