#define node_s4_width 9
#define node_s4_height 9
static unsigned char node_s4_bits[] = {
   0x00, 0x00, 0x00, 0x00, 0x00, 0x00, 0x00, 0x00, 0x10, 0x00, 0x30, 0x00,
   0x70, 0x00, 0xf0, 0x00, 0xf0, 0x01};
