#define node_width 9
#define node_height 9
static unsigned char node_bits[] = {
   0xff, 0xff, 0xef, 0xff, 0xc7, 0xff, 0x83, 0xff, 0x01, 0xff, 0x83, 0xff,
   0xc7, 0xff, 0xef, 0xff, 0xff, 0xff};
