#define node_t1_width 9
#define node_t1_height 9
static unsigned char node_t1_bits[] = {
   0x0f, 0xfe, 0x0f, 0xff, 0x8f, 0xff, 0xcf, 0xff, 0xef, 0xff, 0xff, 0xff,
   0xff, 0xff, 0xff, 0xff, 0xff, 0xff};
