#define node_half_open_width 9
#define node_half_open_height 9
static unsigned char node_half_open_bits[] = {
   0x00, 0x00, 0x40, 0x00, 0x60, 0x00, 0x70, 0x00, 0x78, 0x00, 0x7c, 0x00,
   0x7e, 0x00, 0x7f, 0x00, 0x00, 0x00};
